Normalized EMG Linear Envelopes
nRows=108
nColumns=4

endheader
time	 med_gas_r	  soleus_r	 tib_ant_r	
2.64819	  0.002466	  0.004966	  0.001522	
2.71976	  0.002625	  0.004758	  0.001616	
2.79133	  0.002767	  0.004572	  0.001629	
2.8629	  0.002866	  0.004473	  0.001560	
2.93448	  0.002907	  0.004504	  0.001478	
3.00605	  0.002906	  0.004609	  0.001430	
3.07762	  0.002902	  0.004699	  0.001426	
3.14919	  0.002906	  0.004751	  0.001469	
3.22077	  0.002896	  0.004785	  0.001541	
3.29234	  0.002842	  0.004771	  0.001595	
3.36391	  0.002743	  0.004681	  0.001597	
3.43548	  0.002627	  0.004582	  0.001566	
3.50706	  0.002555	  0.004584	  0.001541	
3.57863	  0.002566	  0.004696	  0.001538	
3.6502	  0.002643	  0.004819	  0.001538	
3.72177	  0.002733	  0.004889	  0.001526	
3.79335	  0.002779	  0.004933	  0.001510	
3.86492	  0.002752	  0.004961	  0.001505	
3.93649	  0.002672	  0.004940	  0.001507	
4.00806	  0.002589	  0.004884	  0.001490	
4.07964	  0.002548	  0.004849	  0.001449	
4.15121	  0.002560	  0.004845	  0.001411	
4.22278	  0.002597	  0.004796	  0.001399	
4.29435	  0.002636	  0.004653	  0.001407	
4.36593	  0.002709	  0.004512	  0.001434	
4.4375	  0.002850	  0.004569	  0.001482	
4.50907	  0.003057	  0.004956	  0.001534	
4.58065	  0.003270	  0.005586	  0.001561	
4.65222	  0.003243	  0.006033	  0.001545	
4.72379	  0.002408	  0.005406	  0.001484	
4.79536	  0.000046	  0.002458	  0.001363	
4.86694	 -0.003781	 -0.003493	  0.001156	
4.93851	 -0.006403	 -0.009959	  0.000929	
5.01008	 -0.000668	 -0.007440	  0.001011	
5.08165	  0.024482	  0.022215	  0.002045	
5.15323	  0.074445	  0.095883	  0.004669	
5.2248	  0.135704	  0.205034	  0.008733	
5.29637	  0.185308	  0.307869	  0.012895	
5.36794	  0.216883	  0.363179	  0.015646	
5.43952	  0.240791	  0.366854	  0.016761	
5.51109	  0.262017	  0.343726	  0.017048	
5.58266	  0.274107	  0.316299	  0.017076	
5.65423	  0.273910	  0.295734	  0.017029	
5.72581	  0.270673	  0.288607	  0.017110	
5.79738	  0.276566	  0.293232	  0.017502	
5.86895	  0.296129	  0.299421	  0.018324	
5.94052	  0.323865	  0.301075	  0.019465	
6.0121	  0.346177	  0.299970	  0.020542	
6.08367	  0.355692	  0.299232	  0.021501	
6.15524	  0.366280	  0.300518	  0.022862	
6.22681	  0.400980	  0.305284	  0.025129	
6.29839	  0.465777	  0.314697	  0.028155	
6.36996	  0.543067	  0.324361	  0.031121	
6.44153	  0.606421	  0.324902	  0.033139	
6.5131	  0.641275	  0.317947	  0.034136	
6.58468	  0.653784	  0.318282	  0.035474	
6.65625	  0.655555	  0.329354	  0.039151	
6.72782	  0.649217	  0.338525	  0.045478	
6.7994	  0.633868	  0.340775	  0.051717	
6.87097	  0.609346	  0.341901	  0.053854	
6.94254	  0.578313	  0.342326	  0.050657	
7.01411	  0.551060	  0.338218	  0.045273	
7.08569	  0.534502	  0.332158	  0.041427	
7.15726	  0.521435	  0.329762	  0.039522	
7.22883	  0.505502	  0.330259	  0.037876	
7.3004	  0.495521	  0.331186	  0.035887	
7.37198	  0.507312	  0.340890	  0.034643	
7.44355	  0.550755	  0.370898	  0.035439	
7.51512	  0.619711	  0.410284	  0.038338	
7.58669	  0.685132	  0.429583	  0.042022	
7.65827	  0.709418	  0.421601	  0.044678	
7.72984	  0.678961	  0.409447	  0.045096	
7.80141	  0.617074	  0.408099	  0.043721	
7.87298	  0.558121	  0.409558	  0.042137	
7.94456	  0.519556	  0.403106	  0.041346	
8.01613	  0.505100	  0.388825	  0.041597	
8.0877	  0.511060	  0.375966	  0.042818	
8.15927	  0.524194	  0.377101	  0.044295	
8.23085	  0.534651	  0.401220	  0.045002	
8.30242	  0.542053	  0.441261	  0.044548	
8.37399	  0.542279	  0.473278	  0.043514	
8.44556	  0.531267	  0.485200	  0.042760	
8.51714	  0.517161	  0.488085	  0.042590	
8.58871	  0.512320	  0.487310	  0.042637	
8.66028	  0.524241	  0.475216	  0.042284	
8.73185	  0.553168	  0.453499	  0.041304	
8.80343	  0.588710	  0.435208	  0.039980	
8.875	  0.616290	  0.430435	  0.038778	
8.94657	  0.629303	  0.440373	  0.038333	
9.01815	  0.630408	  0.458170	  0.038982	
9.08972	  0.620927	  0.473982	  0.039956	
9.16129	  0.596711	  0.480781	  0.039701	
9.23286	  0.559420	  0.477707	  0.037520	
9.30444	  0.520927	  0.468704	  0.035152	
9.37601	  0.494826	  0.457107	  0.036377	
9.44758	  0.490186	  0.447372	  0.044231	
9.51915	  0.505074	  0.445706	  0.057461	
9.59073	  0.523480	  0.450835	  0.070010	
9.6623	  0.529959	  0.456253	  0.076315	
9.73387	  0.528350	  0.461422	  0.075993	
9.80544	  0.529825	  0.466932	  0.071490	
9.87702	  0.519725	  0.461629	  0.064558	
9.94859	  0.463463	  0.424972	  0.056283	
10.0202	  0.353021	  0.347071	  0.047496	
10.0917	  0.222631	  0.244835	  0.038507	
10.1633	  0.114876	  0.149554	  0.029602	
10.2349	  0.046598	  0.078294	  0.021733	
10.3065	  0.004873	  0.024554	  0.015273	
